<svg viewBox="0 0 32 32" xmlns="http://www.w3.org/2000/svg">
  <circle cx="16" cy="16" r="16" fill="#F7931A"/>
  <path d="M22.1 13.5c.3-2-1.2-3.1-3.3-3.8l.7-2.8-1.7-.4-.7 2.7-.7-.2c-.5-.1-.9-.2-1.4-.3l.7-2.7-1.7-.4-.7 2.8-1.1-.3-2.3-.6-.4 1.8s1.3.3 1.2.3c.7.2.8.6.8 1l-.8 3.3c0 0 .1 0 .1.1h-.1l-1.2 4.6c-.1.2-.3.6-.8.4 0 0-1.2-.3-1.2-.3l-.8 1.9 2.2.5 1.2.3-.7 2.8 1.7.4.7-2.8c.5.1 1 .2 1.5.4l-.7 2.8 1.7.4.7-2.8c2.9.5 5.1.3 6-2.3.7-2.1 0-3.3-1.5-4.1 1.1-.3 1.9-1 2.1-2.5zm-3.7 5.2c-.5 2.1-4 1-5.1.7l.9-3.7c1.1.3 4.8.8 4.2 3zm.5-5.3c-.5 1.9-3.4.9-4.3.7l.8-3.3c.9.2 4.1.7 3.5 2.6z" fill="white"/>
</svg>
