<svg viewBox="0 0 32 32" xmlns="http://www.w3.org/2000/svg">
  <circle cx="16" cy="16" r="16" fill="#2775CA"/>
  <path d="M21.2 18.4c0-2.2-1.3-2.9-4-3.3-1.9-.3-2.3-.9-2.3-1.9s.7-1.6 2.1-1.6c1.2 0 1.9.5 2.2 1.4.1.2.2.3.4.3h1c.2 0 .4-.2.4-.4-.3-1.3-1.3-2.3-2.8-2.6V9c0-.2-.2-.4-.4-.4h-.9c-.2 0-.4.2-.4.4v1.3c-2 .3-3.2 1.5-3.2 3.1 0 2.1 1.3 2.8 3.9 3.2 1.8.4 2.4.8 2.4 2s-.9 1.9-2.2 1.9c-1.7 0-2.3-.7-2.5-1.7-.1-.2-.2-.3-.4-.3h-1c-.2 0-.4.2-.4.4.3 1.6 1.3 2.5 3.3 2.9V23c0 .2.2.4.4.4h.9c.2 0 .4-.2.4-.4v-1.3c2-.4 3.2-1.6 3.2-3.3z" fill="white"/>
</svg>
